<?xml version="1.0" encoding="UTF-8" standalone="no"?>
<!-- Generator: Adobe Illustrator 18.1.1, SVG Export Plug-In . SVG Version: 6.00 Build 0)  -->

<svg
   fill="black"
   version="1.1"
   id="Capa_1"
   x="0px"
   y="0px"
   viewBox="0 0 611.998 611.998"
   style="enable-background:new 0 0 611.998 611.998;"
   xml:space="preserve"
   sodipodi:docname="groups.svg"
   inkscape:version="1.1 (c68e22c387, 2021-05-23)"
   xmlns:inkscape="http://www.inkscape.org/namespaces/inkscape"
   xmlns:sodipodi="http://sodipodi.sourceforge.net/DTD/sodipodi-0.dtd"
   xmlns="http://www.w3.org/2000/svg"
   xmlns:svg="http://www.w3.org/2000/svg"><defs
   id="defs109" /><sodipodi:namedview
   id="namedview107"
   pagecolor="#ffffff"
   bordercolor="#666666"
   borderopacity="1.0"
   inkscape:pageshadow="2"
   inkscape:pageopacity="0.0"
   inkscape:pagecheckerboard="0"
   showgrid="false"
   inkscape:zoom="0.98556452"
   inkscape:cx="285.11578"
   inkscape:cy="322.1504"
   inkscape:window-width="1857"
   inkscape:window-height="1057"
   inkscape:window-x="-8"
   inkscape:window-y="-8"
   inkscape:window-maximized="1"
   inkscape:current-layer="Capa_1" />
<g
   id="g74">
	<g
   id="g72">
		<path
   d="M382.167,150.945c9.702,10.875,16.557,24.306,20.381,39.921c3.629,14.822,4.44,31.308,2.414,49.006    c-0.751,6.546-1.861,13.96-3.479,21.802c12.532,12.135,28.95,19.839,50.296,19.838c59.22-0.005,80.529-59.3,86.105-108.006    c6.872-60.004-21.498-105.163-86.105-105.163c-50.698,0-79.079,27.82-85.628,68.798    C372.076,141.062,377.449,145.655,382.167,150.945z"
   id="path60" />
		<path
   d="M611.973,422.704c-0.645-18.899-2.861-37.887-6.161-56.495c-3.992-22.539-9.08-55.585-28.759-70.275    c-11.38-8.491-26.117-11.278-39.143-16.398c-6.343-2.492-12.024-4.967-17.354-7.784c-17.995,19.734-41.459,30.055-68.782,30.057    c-21.261,0-40.172-6.281-56.001-18.358c-3.644,11.272-8.522,22.623-15.044,32.994c5.728,3.449,11.923,6.204,19.451,9.162    c3.332,1.31,6.99,2.506,10.864,3.771c10.472,3.422,22.339,7.301,32.994,15.255c25.329,18.907,31.564,54.336,36.117,80.207    l0.49,2.792c2.355,13.266,4.084,26.299,5.197,38.961c20.215-2.071,40.327-5.61,60.047-9.774    c15.941-3.365,31.774-7.471,47.109-13.003C605.247,439.397,612.476,437.343,611.973,422.704z"
   id="path62" />
		<path
   d="M160.216,281.511c21.345,0.002,37.762-7.703,50.295-19.838c-1.618-7.841-2.728-15.256-3.479-21.802    c-2.026-17.697-1.214-34.184,2.414-49.006c3.823-15.614,10.679-29.046,20.381-39.921c4.718-5.291,10.09-9.884,16.014-13.805    c-6.549-40.978-34.93-68.798-85.628-68.798c-64.606,0-92.977,45.16-86.106,105.163    C79.687,222.212,100.996,281.507,160.216,281.511z"
   id="path64" />
		<path
   d="M167.957,344.634c10.655-7.954,22.524-11.833,32.994-15.255c3.875-1.265,7.531-2.461,10.864-3.771    c7.528-2.957,13.725-5.711,19.451-9.162c-6.52-10.369-11.4-21.722-15.043-32.994c-15.829,12.077-34.741,18.358-56.001,18.358    c-27.322-0.001-50.788-10.324-68.782-30.057c-5.329,2.817-11.012,5.291-17.354,7.784c-13.026,5.12-27.763,7.907-39.143,16.398    c-19.678,14.691-24.767,47.735-28.759,70.275c-3.3,18.607-5.516,37.595-6.161,56.495c-0.502,14.64,6.726,16.693,18.974,21.112    c15.334,5.531,31.17,9.637,47.109,13.003c19.72,4.165,39.833,7.704,60.047,9.774c1.112-12.662,2.841-25.693,5.197-38.961    l0.49-2.792C136.394,398.971,142.628,363.541,167.957,344.634z"
   id="path66" />
		<path
   d="M470.351,429.405l-0.493-2.805c-4.258-24.197-10.091-57.334-32.191-73.832c-9.321-6.957-19.872-10.404-30.078-13.74    c-4.019-1.313-7.812-2.554-11.427-3.974c-5.269-2.07-10.016-4.097-14.464-6.338c-18.684,24.932-44.58,38.059-75.383,38.062    c-30.795,0-56.687-13.128-75.371-38.062c-4.449,2.243-9.196,4.269-14.467,6.34c-3.61,1.418-7.406,2.659-11.424,3.972    c-10.207,3.335-20.761,6.784-30.079,13.74c-22.107,16.5-27.936,49.645-32.193,73.846l-0.493,2.795    c-3.557,20.086-5.68,39.572-6.308,57.914c-0.737,21.519,12.62,26.316,24.403,30.55l1.269,0.457    c14.17,5.112,30.021,9.492,48.457,13.388c37.646,7.946,68.197,11.74,96.138,11.938h0.072h0.072    c27.946-0.199,58.495-3.992,96.135-11.938c18.439-3.894,34.289-8.274,48.453-13.387l1.268-0.456    c11.786-4.233,25.147-9.029,24.41-30.553C476.03,468.931,473.906,449.447,470.351,429.405z"
   id="path68" />
		<path
   d="M221.005,243.009c5.577,48.709,26.883,108.009,86.103,108.006s80.529-59.297,86.106-108.006    c6.871-60.002-21.503-105.16-86.106-105.16C242.515,137.847,214.123,183.002,221.005,243.009z"
   id="path70" />
	</g>
</g>
<g
   id="g76">
</g>
<g
   id="g78">
</g>
<g
   id="g80">
</g>
<g
   id="g82">
</g>
<g
   id="g84">
</g>
<g
   id="g86">
</g>
<g
   id="g88">
</g>
<g
   id="g90">
</g>
<g
   id="g92">
</g>
<g
   id="g94">
</g>
<g
   id="g96">
</g>
<g
   id="g98">
</g>
<g
   id="g100">
</g>
<g
   id="g102">
</g>
<g
   id="g104">
</g>
<path
   style="fill:#000000;stroke:none;stroke-width:0.720846"
   d="m 289.77997,542.74882 c -36.947,-2.02419 -89.84316,-11.96525 -122.48484,-23.01921 -14.92999,-5.05599 -18.91123,-6.96317 -23.5046,-11.25974 -5.31112,-4.96793 -6.71582,-8.90186 -7.04735,-19.73648 -0.73502,-24.02132 7.72658,-78.40093 15.77522,-101.38158 3.03238,-8.65813 8.57946,-19.10171 13.14461,-24.7476 8.41768,-10.41044 17.48278,-15.7274 39.77801,-23.33104 7.53284,-2.56902 16.28149,-5.8496 19.44143,-7.29018 l 5.74536,-2.61922 3.5784,4.17622 c 19.12328,22.31815 43.01445,33.35859 72.2064,33.36757 11.27017,0.003 20.38645,-1.40935 30.34595,-4.70295 14.80593,-4.89631 23.74532,-10.65575 36.42828,-23.46989 l 9.15975,-9.25449 5.59996,2.55198 c 3.07998,1.40359 11.28455,4.49898 18.23238,6.87863 16.2478,5.56493 21.41225,7.83372 28.52339,12.53059 11.32732,7.48163 18.61718,17.65099 25.04076,34.93187 8.19916,22.0576 17.28567,80.37763 16.22809,104.15692 -0.39338,8.84521 -2.31277,13.60085 -7.37119,18.26354 -4.35981,4.01873 -8.38954,5.90994 -23.25651,10.91462 -34.29516,11.54479 -84.41854,20.87637 -123.88863,23.06461 -14.22309,0.78853 -16.87775,0.78651 -31.67487,-0.0242 z"
   id="path228" /><path
   style="fill:#000000;stroke-width:0.720846"
   d="m 287.25701,542.30815 c -37.58108,-2.74334 -85.37336,-11.80112 -117.49785,-22.26867 -19.49706,-6.35298 -26.72895,-10.68387 -30.40673,-18.20941 -4.04591,-8.27881 -2.0333,-40.90549 4.84222,-78.49788 4.14806,-22.67979 7.9472,-35.65222 13.8419,-47.26415 10.33721,-20.36323 17.66825,-25.74291 51.75567,-37.97949 6.55256,-2.35221 13.84141,-5.14183 16.19743,-6.19916 l 4.28369,-1.9224 6.96278,7.32281 c 11.90363,12.51914 23.31547,20.02949 37.79317,24.87239 10.20491,3.41362 19.09937,4.74189 31.77634,4.74537 11.60988,0.003 19.54511,-1.10473 28.87127,-4.03102 14.74665,-4.62711 23.19186,-9.96154 36.78903,-23.23786 l 9.88054,-9.64738 5.97806,2.54305 c 3.28794,1.39867 11.65473,4.55254 18.59287,7.00858 19.49359,6.90058 27.16916,10.89122 35.21787,18.31026 10.14185,9.34843 17.93495,26.40169 23.42753,51.26527 6.15432,27.85914 9.42088,53.38225 9.4514,73.84816 0.023,15.42733 0.0143,15.51487 -1.90321,19.14816 -4.02604,7.62845 -9.85433,11.12886 -29.28731,17.58962 -32.64215,10.85233 -76.34787,19.19405 -117.20505,22.36987 -8.52942,0.663 -31.60486,0.80011 -39.36162,0.23388 z"
   id="path304" /><path
   style="fill:#000000;stroke-width:0.720846"
   d="m 295.18631,349.8752 c -26.13979,-4.91907 -44.91201,-20.44012 -57.97584,-47.93499 -11.79089,-24.81574 -18.73729,-61.91919 -16.30534,-87.09314 3.23334,-33.46932 18.97023,-57.17472 45.80778,-69.00296 11.21992,-4.94501 24.73264,-7.43324 40.36736,-7.43324 26.60452,0 47.01697,7.18053 62.25161,21.89837 11.92906,11.52438 19.39421,26.36923 22.87707,45.49221 2.07568,11.39675 1.78683,31.23058 -0.6767,46.46559 -7.62951,47.18259 -26.05273,78.81637 -53.35253,91.60948 -10.12246,4.74355 -15.60296,5.89021 -29.29734,6.12976 -6.54167,0.11442 -12.7049,0.0554 -13.69607,-0.13108 z"
   id="path343" /><path
   style="fill:#000000;stroke-width:0.720846"
   d="m 486.20416,465.77794 c -0.0664,-5.0015 -4.01466,-32.1628 -6.93208,-47.68743 -5.69404,-30.30011 -11.63346,-46.69485 -21.91386,-60.48949 -9.94103,-13.33922 -19.73422,-19.47203 -45.03448,-28.202 -13.65001,-4.71 -26.294,-9.96948 -29.00122,-12.06354 l -1.60909,-1.24464 4.92572,-9.73142 c 2.70915,-5.35228 5.86609,-12.40671 7.01543,-15.67652 1.14934,-3.26981 2.3004,-5.94595 2.55791,-5.94698 0.25751,-0.001 2.20379,1.16831 4.32507,2.59854 8.39108,5.65748 20.1353,10.48196 31.60944,12.98503 8.64023,1.88487 30.21024,1.90804 38.92567,0.0418 17.30218,-3.70488 31.80595,-11.16921 44.02122,-22.65544 l 5.55776,-5.22605 8.10758,3.6125 c 4.45917,1.98687 14.30754,5.74337 21.88527,8.34777 20.927,7.19243 28.4394,11.76259 35.42334,21.54969 4.36063,6.11088 9.12864,16.4026 11.8293,25.53348 5.97353,20.19637 12.08155,59.01715 13.45268,85.50125 0.96969,18.72996 -0.91495,20.78384 -26.74396,29.14569 -20.55258,6.65367 -52.78336,13.76727 -79.65345,17.58017 -16.61666,2.35792 -18.74082,2.58764 -18.74825,2.02756 z"
   id="path382" /><path
   style="fill:#000000;stroke-width:0.720846"
   d="m 438.9587,280.07648 c -13.58999,-2.46874 -25.09792,-7.87357 -34.03022,-15.98267 l -3.07019,-2.78724 1.38584,-7.56888 c 3.30902,-18.07247 3.80509,-41.45801 1.18141,-55.69381 -4.46147,-24.20751 -16.02116,-44.54397 -32.48984,-57.15795 -5.31212,-4.06877 -5.40154,-4.19067 -4.94215,-6.73766 1.80066,-9.98363 7.51494,-24.06001 13.11435,-32.3055 14.67662,-21.61229 38.8628,-32.795173 71.14151,-32.893471 27.1589,-0.08271 47.23335,6.906432 62.61054,21.798541 6.68981,6.478779 10.77467,12.01112 14.69485,19.90198 9.84837,19.82361 12.23602,43.79005 7.36096,73.88668 -7.97704,49.24687 -29.29017,82.23347 -59.86663,92.65633 -10.90654,3.71781 -26.02717,4.89338 -37.09043,2.88365 z"
   id="path421" /><path
   style="fill:#000000;stroke-width:0.720846"
   d="M 147.28164,280.09779 C 122.20335,275.6618 103.55121,260.0547 90.412609,232.51288 83.685242,218.41062 79.046894,202.87574 76.087993,184.5365 c -4.96384,-30.76585 -2.583207,-54.15848 7.556019,-74.24711 3.980863,-7.8872 7.030253,-12.096282 13.486852,-18.61595 15.221666,-15.370356 36.044146,-22.80811 63.617726,-22.724141 37.55848,0.114376 63.48036,14.817581 77.17513,43.774671 2.92286,6.18026 6.02325,15.56118 7.08073,21.4243 0.45938,2.54699 0.36997,2.66889 -4.94216,6.73766 -16.46243,12.6092 -27.97107,32.84746 -32.50328,57.15795 -2.61396,14.02103 -2.10676,37.66174 1.19486,55.69381 l 1.38584,7.56888 -3.07019,2.81063 c -7.32854,6.70898 -17.94241,12.19933 -28.80878,14.9022 -7.72967,1.92266 -23.16795,2.46007 -30.9791,1.07839 z"
   id="path460" /><path
   style="fill:#000000;stroke-width:0.720846"
   d="M 122.18335,465.87832 C 93.630554,462.73069 50.705465,453.74881 26.055928,445.76408 7.9814811,439.90922 2.8004454,436.67535 1.0113542,430.1319 c -2.3115985,-8.45448 3.0620976,-55.61177 9.7917288,-85.92808 5.119603,-23.06329 13.356287,-39.44894 23.815831,-47.378 5.820647,-4.41246 12.178096,-7.38244 25.77213,-12.03983 7.048375,-2.41481 16.907641,-6.16132 21.909481,-8.32559 l 9.094247,-3.93502 5.533551,5.20328 c 12.190017,11.46245 26.707677,18.93054 43.997007,22.63266 8.71543,1.86621 30.28544,1.84304 38.92567,-0.0418 11.47414,-2.50307 23.21836,-7.32755 31.60944,-12.98503 2.12128,-1.43022 4.06757,-2.59956 4.32507,-2.59853 0.25751,0.001 1.40857,2.67717 2.55791,5.94697 1.14934,3.26981 4.30628,10.32424 7.01543,15.67652 l 4.92573,9.73142 -1.6091,1.24464 c -2.73871,2.11842 -15.93078,7.61004 -29.2495,12.17603 -14.77358,5.06476 -21.0528,7.84056 -28.21005,12.47056 -16.30516,10.54775 -27.31925,28.5205 -34.23737,55.8684 -3.57648,14.13812 -8.63159,44.16128 -10.84188,64.39184 -0.24907,2.27967 -0.67279,4.09294 -0.94161,4.02949 -0.26882,-0.0634 -1.6241,-0.24051 -3.01172,-0.39348 z"
   id="path499" /><path
   style="fill:#000000;stroke-width:0.206666"
   d="m 301.21534,543.18816 c -18.7318,-0.78748 -30.79679,-1.8772 -47.93915,-4.32987 -35.18177,-5.03372 -68.71233,-12.8741 -93.25908,-21.8066 -7.86528,-2.86215 -11.2615,-4.57724 -14.70384,-7.42544 -6.22149,-5.14767 -7.92827,-9.15941 -8.39199,-19.72508 -1.02315,-23.31193 7.34523,-78.23049 15.53922,-101.97818 3.27386,-9.48822 9.01662,-20.16387 14.06938,-26.15458 2.1981,-2.60614 5.94474,-6.24944 8.12611,-7.90196 6.88163,-5.21328 14.70732,-8.88364 31.16283,-14.61582 10.26839,-3.57693 16.09981,-5.81206 21.25224,-8.14578 1.78862,-0.81013 3.33684,-1.47297 3.44048,-1.47297 0.10363,0 1.5697,1.60299 3.25792,3.56219 14.95048,17.35021 31.59543,27.52332 51.94595,31.74844 6.87146,1.42664 12.61294,1.96375 20.97657,1.96232 13.48299,-0.002 23.49839,-1.8598 35.62551,-6.60729 6.07468,-2.37809 10.0784,-4.46782 15.11094,-7.8871 5.55443,-3.77387 9.78808,-7.51626 18.70595,-16.53539 l 6.20266,-6.2731 3.51063,1.59171 c 5.35052,2.42591 10.02931,4.21714 21.3872,8.1879 15.80704,5.5262 20.36776,7.55073 27.17655,12.06385 7.29675,4.83655 12.09478,9.77989 16.93996,17.45296 2.99454,4.74231 7.25897,14.18707 9.47118,20.97658 6.8035,20.88074 14.23557,66.17847 14.99149,91.37178 0.42019,14.00443 -0.7038,19.72124 -4.89556,24.89955 -2.6075,3.2212 -6.36677,5.98883 -10.81403,7.96147 -6.46788,2.8689 -21.05397,7.74034 -32.92634,10.99668 -32.66138,8.95832 -72.19645,15.57086 -104.57287,17.49062 -10.65557,0.63182 -16.56875,0.79579 -21.38991,0.59311 z"
   id="path538" /><path
   style="fill:#000000;stroke-width:0.325873"
   d="m 148.16709,280.0442 c -14.405,-2.22202 -27.73289,-9.01152 -38.30677,-19.51423 C 102.70428,253.4221 97.078891,245.35784 91.565012,234.30279 82.89496,216.91977 77.28578,196.38115 74.566535,172.06102 c -0.817679,-7.31308 -0.809276,-24.87949 0.01473,-30.79501 1.612679,-11.57739 4.088489,-20.12966 8.490374,-29.32859 3.979659,-8.31656 7.57731,-13.417582 14.033552,-19.897805 12.998349,-13.046634 28.902219,-20.10759 50.352409,-22.355323 6.03465,-0.632362 21.14977,-0.539867 27.04747,0.165514 36.11686,4.319682 58.86021,23.536744 68.80632,58.138124 1.52777,5.31494 1.87426,7.86295 1.20011,8.82543 -0.25727,0.3673 -2.14623,2.00452 -4.19768,3.63827 -7.35999,5.86138 -12.87127,11.84431 -17.89426,19.42567 -6.93697,10.47016 -11.93918,22.95846 -14.66989,36.62421 -1.53456,7.67961 -1.80009,11.36014 -1.77502,24.60342 0.028,14.77813 0.78041,23.1379 3.23084,35.89541 l 0.80422,4.18698 -1.21426,1.0983 c -5.87131,5.31058 -9.81174,8.05339 -15.92191,11.08276 -7.72602,3.8305 -14.62044,5.89276 -22.44855,6.71483 -5.99824,0.62991 -18.05846,0.60877 -22.2579,-0.039 z"
   id="path616" /></svg>
