<?xml version="1.0" encoding="iso-8859-1"?>
<!-- Generator: Adobe Illustrator 19.0.0, SVG Export Plug-In . SVG Version: 6.00 Build 0)  -->
<svg version="1.1" id="Layer_1" xmlns="http://www.w3.org/2000/svg" xmlns:xlink="http://www.w3.org/1999/xlink" x="0px" y="0px"
	 viewBox="0 0 299.862 299.862" style="enable-background:new 0 0 299.862 299.862;" xml:space="preserve">
<g>
	<g>
		<g>
			<path d="M128.114,58.411c-2.412,2.406-2.412,6.306,0,8.724c2.419,2.412,6.312,2.412,8.724,0c7.219-7.207,18.967-7.207,26.185,0
				c1.203,1.203,2.783,1.808,4.362,1.808c1.579,0,3.159-0.605,4.362-1.808c2.419-2.419,2.419-6.318,0-8.724
				C159.723,46.386,140.139,46.386,128.114,58.411z"/>
			<path d="M189.191,49.687c2.419-2.412,2.419-6.312,0-8.724c-10.483-10.489-24.433-16.27-39.266-16.27s-28.783,5.781-39.26,16.27
				c-2.419,2.412-2.419,6.318,0,8.724c1.197,1.203,2.776,1.808,4.362,1.808c1.58,0,3.153-0.605,4.362-1.808
				c8.151-8.157,19.004-12.655,30.535-12.655c11.538,0,22.385,4.498,30.542,12.655C182.885,52.099,186.772,52.099,189.191,49.687z"
				/>
			<path d="M206.646,23.508C191.498,8.354,171.353,0,149.931,0s-41.567,8.354-56.715,23.508c-2.412,2.419-2.412,6.306,0,8.724
				c2.419,2.419,6.312,2.419,8.724,0c12.821-12.821,29.863-19.886,47.99-19.886s35.175,7.065,47.99,19.886
				c1.203,1.203,2.783,1.808,4.362,1.808s3.159-0.605,4.362-1.808C209.058,29.813,209.058,25.926,206.646,23.508z"/>
			<path d="M177.869,77.742h-61.7c-14.29,0-24.68,10.39-24.68,24.68v135.74c0,28.53,24.26,61.7,55.53,61.7
				c31.276,0,55.53-33.17,55.53-61.7v-135.74C202.549,88.132,192.158,77.742,177.869,77.742z M190.209,238.162
				c0,22.354-19.263,49.36-43.19,49.36s-43.19-27.006-43.19-49.36v-135.74c0-7.497,4.843-12.34,12.34-12.34h61.7
				c7.497,0,12.34,4.843,12.34,12.34V238.162z"/>
			<path d="M147.019,114.762c-10.205,0-18.516,8.305-18.516,18.51c0,10.205,8.311,18.51,18.516,18.51
				c10.211,0,18.51-8.305,18.51-18.51C165.529,123.067,157.224,114.762,147.019,114.762z M147.019,139.442
				c-3.406,0-6.176-2.764-6.176-6.17s2.77-6.17,6.176-6.17s6.17,2.764,6.17,6.17S150.425,139.442,147.019,139.442z"/>
		</g>
	</g>
</g>
</svg>
