<?xml version="1.0" encoding="iso-8859-1"?>
<!-- Generator: Adobe Illustrator 19.0.0, SVG Export Plug-In . SVG Version: 6.00 Build 0)  -->
<svg version="1.1" id="Layer_1" xmlns="http://www.w3.org/2000/svg" xmlns:xlink="http://www.w3.org/1999/xlink" x="0px" y="0px"
	 viewBox="0 0 459.863 459.863" style="enable-background:new 0 0 459.863 459.863;" xml:space="preserve">
<g>
	<g>
		<g>
			<path d="M395.988,193.977c-18.629,24.992-45.641,41.956-77.406,44.25c26.626,31.04,43.84,70.378,47.152,113.55
				c1.243,16.197,0.369,24.083-0.932,30.599c16.064-2.497,30.815-6.128,43.488-10.794c42.626-15.694,51.573-38.891,51.573-55.586
				C459.863,265.521,434.565,220.849,395.988,193.977z"/>
			<path d="M276.72,199.407c10.642,5.952,22.36,9.093,34.525,9.093c45.83,0,81.115-44.3,81.115-96.677
				c0-52.382-35.29-96.677-81.115-96.677c-18.734,0-36.411,7.436-50.724,21.145c20.03,25.65,31.446,59.072,31.446,94.667
				C291.967,154.544,286.961,178.037,276.72,199.407z"/>
			<path d="M259.999,226.279c-24.558,31.058-57.739,46.482-91.839,46.482c-36.232,0-68.69-17.206-91.839-46.482
				C30.403,256.333,0,308.217,0,367.076c0,18.127,9.926,43.389,57.213,60.8c29.496,10.861,68.898,16.841,110.947,16.841
				c42.049,0,81.451-5.98,110.947-16.841c47.287-17.411,57.213-42.673,57.213-60.8C336.32,308.217,305.918,256.333,259.999,226.279z
				"/>
			<path d="M168.16,242.763c53.003,0,93.806-51.234,93.806-111.804c0-60.571-40.808-111.804-93.806-111.804
				c-52.995,0-93.806,51.223-93.806,111.804C74.354,191.541,115.169,242.763,168.16,242.763z"/>
		</g>
	</g>
</g>
</svg>
